<?xml version="1.0" encoding="UTF-8"?>
<svg id="Layer_2" data-name="Layer 2" xmlns="http://www.w3.org/2000/svg" viewBox="0 0 118.99 153.61">
  <defs>
    <style>
      .cls-1 {
        fill: #14b7a5;
      }
    </style>
  </defs>
  <g id="Layer_1-2" data-name="Layer 1">
    <g>
      <path class="cls-1" d="M109.53,88.03c-.69-.69-1.63-1.08-2.61-1.08h-4.63v-53.74c0-1.01-.43-1.96-1.08-2.61L71.69,1.08c-.7-.7-1.66-1.08-2.61-1.08H27.77c-6.1,0-11.07,4.96-11.07,11.07v75.87h-4.63c-.98,0-1.92.39-2.61,1.08l-8.38,8.38c-1.44,1.44-1.44,3.78,0,5.22l44.6,44.6h-25.7c-4.89.18-4.89,7.2,0,7.38h81.02c2.04,0,3.69-1.65,3.69-3.69s-1.65-3.69-3.69-3.69h-27.68l44.6-44.6c1.44-1.44,1.44-3.78,0-5.22l-8.38-8.38ZM72.78,12.6l16.92,16.92h-13.23c-2.03,0-3.69-1.66-3.69-3.69v-13.23ZM24.07,11.07c0-2.03,1.66-3.69,3.69-3.69h37.63v18.45c0,6.1,4.96,11.07,11.07,11.07h18.45v50.05h-3.8c-2.04,0-3.69,1.65-3.69,3.69v8.16h-8.16c-2.04,0-3.69,1.65-3.69,3.69v8.16h-8.16c-2.04,0-3.69,1.65-3.69,3.69v8.75c-2.66-.78-5.77-.78-8.43,0v-8.75c0-2.04-1.65-3.69-3.69-3.69h-8.16v-8.16c0-2.04-1.65-3.69-3.69-3.69h-8.16v-8.16c0-2.04-1.65-3.69-3.69-3.69h-3.8V11.07h0ZM44.37,134.48L8.9,99.01l4.69-4.69h10.59v8.16c0,2.04,1.65,3.69,3.69,3.69h8.16v8.16c0,2.04,1.65,3.69,3.69,3.69h8.16v9.68c-1.69,1.9-2.93,4.21-3.53,6.76h0ZM59.49,146.23c-4.5,0-8.16-3.66-8.16-8.16.41-10.82,15.93-10.81,16.34,0,0,4.5-3.66,8.16-8.16,8.16h0ZM74.62,134.48c-.6-2.55-1.84-4.87-3.53-6.76v-9.69h8.16c2.04,0,3.69-1.65,3.69-3.69v-8.16h8.16c2.04,0,3.69-1.65,3.69-3.69v-8.16h10.59l4.69,4.69-35.46,35.46h0Z"/>
      <path class="cls-1" d="M39.56,52.14h36.9c2.04,0,3.69-1.65,3.69-3.69s-1.65-3.69-3.69-3.69h-36.9c-2.04,0-3.69,1.65-3.69,3.69s1.65,3.69,3.69,3.69Z"/>
      <path class="cls-1" d="M39.56,66.9h36.9c2.04,0,3.69-1.65,3.69-3.69s-1.65-3.69-3.69-3.69h-36.9c-2.04,0-3.69,1.65-3.69,3.69s1.65,3.69,3.69,3.69Z"/>
      <path class="cls-1" d="M39.56,81.65h36.9c2.04,0,3.69-1.65,3.69-3.69s-1.65-3.69-3.69-3.69h-36.9c-2.04,0-3.69,1.65-3.69,3.69s1.65,3.69,3.69,3.69Z"/>
    </g>
  </g>
</svg>