<?xml version="1.0" encoding="UTF-8"?>
<svg id="Layer_2" data-name="Layer 2" xmlns="http://www.w3.org/2000/svg" viewBox="0 0 148.51 159.88">
  <defs>
    <style>
      .cls-1 {
        fill: #606161;
      }

      .cls-2 {
        fill: #14b7a5;
      }
    </style>
  </defs>
  <g id="Layer_1-2" data-name="Layer 1">
    <g>
      <path class="cls-2" d="M90.15,31.2c-4.15,0-7.52-3.26-7.52-7.28V0h-38.45c-6.52,0-11.81,5.13-11.81,11.44v67.42l.04,8.72,6.96-7.02,12.48-12.6.09,17.73.09,20.17,6.38-6.44,12.49-12.6.04,8.35.05,9.39v1.93s.11,22.35.11,22.35l3.17,3.14,3.17-3.14.11-22.35v-1.93s.06-9.39.06-9.39l.04-8.35,12.49,12.6,6.38,6.44.09-20.17.09-17.73,12.48,12.6,6.96,7.02.04-8.72V31.2h-25.99ZM103.38,66.95h-59.55c-2.24,0-4.06-2.1-4.06-4.68s1.82-4.68,4.06-4.68h59.55c2.24,0,4.06,2.1,4.06,4.68s-1.82,4.68-4.06,4.68ZM103.38,48.02h-59.55c-2.24,0-4.06-2.09-4.06-4.68s1.82-4.68,4.06-4.68h59.55c2.24,0,4.06,2.09,4.06,4.68s-1.82,4.68-4.06,4.68Z"/>
      <path class="cls-2" d="M91.33,22.16c0,.52.45.94,1.01.94h23.02c-.55-.95-23.12-20.91-24.02-21.34v20.41h0Z"/>
      <g>
        <path class="cls-2" d="M57.85,148.23c0-.09.02-.18.04-.27l.11.11-.16.16Z"/>
        <path class="cls-2" d="M67.42,135.55c-4.95,2.25-8.62,6.87-9.52,12.41L0,90.62l11.36-10.59,13.6-13.73.13,27.32,5.9,5.84,1.71-1.73,11.89-12,.1,20.76.03,6.57,5.31,5.27,11.72-11.83,1.87-1.89v1.89s.13,25.43.13,25.43l3.67,3.64Z"/>
        <path class="cls-1" d="M57.89,147.96c-.02.09-.03.18-.04.27l.16-.16-.11-.11Z"/>
      </g>
      <g>
        <path class="cls-2" d="M80.91,135.47c.06.03.12.05.18.08l-.18.17v-.25Z"/>
        <path class="cls-2" d="M90.61,147.97c.02.08.03.17.04.25l-.15-.15.11-.11Z"/>
        <path class="cls-2" d="M148.51,90.62l-57.9,57.35c-.9-5.54-4.56-10.16-9.52-12.42l3.67-3.64.12-25.43v-1.89s1.88,1.89,1.88,1.89l11.72,11.83,5.31-5.27.03-6.57.1-20.76,11.89,12,1.71,1.73,5.9-5.84.13-27.32,13.6,13.73,11.36,10.59Z"/>
        <path class="cls-1" d="M90.61,147.97l-.11.11.15.15c-.01-.08-.02-.17-.04-.25ZM80.91,135.47v.25l.18-.17c-.06-.03-.12-.05-.18-.08ZM80.91,135.47v.25l.18-.17c-.06-.03-.12-.05-.18-.08Z"/>
      </g>
      <g>
        <path class="cls-2" d="M83.48,150.65c0,.31-.01.62-.05.92-.32,3.23-2.31,5.97-5.1,7.35-1.15.57-2.44.91-3.8.95-.09,0-.19,0-.28,0s-.19,0-.28,0c-1.36-.04-2.65-.37-3.8-.95-2.79-1.38-4.78-4.13-5.1-7.36-.03-.3-.05-.61-.05-.92,0-2.98,1.42-5.63,3.61-7.32,1.34-1.03,2.98-1.7,4.75-1.87.28-.03.57-.04.86-.04s.58.01.86.04c2,.18,3.82,1.01,5.25,2.28,1.91,1.69,3.12,4.16,3.12,6.91Z"/>
        <path class="cls-1" d="M90.61,147.97l-.11.11.15.15c-.01-.08-.02-.17-.04-.25ZM80.91,135.47v.25l.18-.17c-.06-.03-.12-.05-.18-.08ZM57.89,147.96c-.02.09-.03.18-.04.27l.16-.16-.11-.11Z"/>
      </g>
    </g>
  </g>
</svg>